<?xml version="1.0" encoding="UTF-8"?>
<!--Generator: Apple Native CoreSVG 326-->
<!DOCTYPE svg
PUBLIC "-//W3C//DTD SVG 1.1//EN"
       "http://www.w3.org/Graphics/SVG/1.1/DTD/svg11.dtd">
<svg version="1.1" xmlns="http://www.w3.org/2000/svg" xmlns:xlink="http://www.w3.org/1999/xlink" viewBox="0 0 12.2266 18.8379">
 <g>
  <rect height="18.8379" opacity="0" width="12.2266" x="0" y="0"/>
  <path d="M9.89746 13.0859C10.8496 13.0859 11.377 12.5098 11.4062 11.5332L11.5771 2.1875C11.582 2.06543 11.5869 1.93359 11.5869 1.83594C11.5869 0.795898 10.9229 0.161133 9.89746 0.161133C8.87695 0.161133 8.19336 0.795898 8.19336 1.83594C8.19336 1.93359 8.19824 2.06543 8.20801 2.1875L8.38379 11.5332C8.41309 12.5098 8.94043 13.0859 9.89746 13.0859ZM9.89258 18.8379C10.9814 18.8379 11.8652 17.9932 11.8652 16.9336C11.8652 15.8789 10.9814 15.0391 9.89258 15.0391C8.79883 15.0391 7.91504 15.8789 7.91504 16.9336C7.91504 17.9932 8.79883 18.8379 9.89258 18.8379Z" fill="#ff453a"/>
  <path d="M1.98242 13.0859C2.93457 13.0859 3.4668 12.5098 3.49121 11.5332L3.66211 2.1875C3.66699 2.06543 3.67188 1.93359 3.67188 1.83594C3.67188 0.795898 3.00781 0.161133 1.98242 0.161133C0.957031 0.161133 0.27832 0.795898 0.27832 1.83594C0.27832 1.93359 0.288086 2.06543 0.292969 2.1875L0.473633 11.5332C0.498047 12.5098 1.02539 13.0859 1.98242 13.0859ZM1.97754 18.8379C3.06152 18.8379 3.94531 17.9932 3.94531 16.9336C3.94531 15.8789 3.06152 15.0391 1.97754 15.0391C0.883789 15.0391 0 15.8789 0 16.9336C0 17.9932 0.883789 18.8379 1.97754 18.8379Z" fill="#ff453a"/>
 </g>
</svg>
